<svg height="128" width="128" fill="#b8b8b8" xmlns="http://www.w3.org/2000/svg"
    viewBox="0 0 512 512"><path d="M503.283 233.406c-8.198-11.548-21.106-18.678-35.108-19.704v-44.571a44.818 44.818 0 00-13.14-31.724 44.83 44.83 0 00-31.724-13.134H220.167a9.864 9.864 0 01-6.755-2.681l.013.021-35.695-33.474a44.885 44.885 0 00-30.684-12.136H88.698a44.82 44.82 0 00-31.724 13.141 44.816 44.816 0 00-13.14 31.724v92.834c-14.002 1.026-26.911 8.156-35.109 19.711A47.286 47.286 0 000 260.768c0 5.244.875 10.53 2.66 15.616l42.15 120.524c.247.69.499 1.299.821 1.956 1.935 3.917 3.74 7.766 5.77 11.609 3.07 5.695 6.584 11.78 12.943 17.14 3.158 2.632 7.035 4.888 11.253 6.317 4.225 1.443 8.676 2.072 13.1 2.066H423.31c7.302.04 14.18-2.352 19.349-5.71 7.849-5.086 12.491-11.568 16.032-17.202 3.48-5.647 5.894-10.905 7.412-13.688.486-.916.746-1.511 1.087-2.488l42.157-120.531A47.267 47.267 0 00512 260.768a47.322 47.322 0 00-8.717-27.362zm-70.115-19.909H78.838v-92.628c.007-2.776 1.074-5.128 2.885-6.974 1.846-1.812 4.198-2.878 6.974-2.885h58.348c2.509 0 4.908.951 6.748 2.667l35.69 33.468.013.02a44.927 44.927 0 0030.671 12.115H423.31c2.776.006 5.134 1.074 6.974 2.885 1.812 1.839 2.879 4.191 2.885 6.967v44.365z"/></svg>